<svg version="1.2" xmlns="http://www.w3.org/2000/svg" viewBox="0 0 769 257" width="769" height="257">
	<title>New Project</title>
	<defs>
		<linearGradient id="g1" x1="16" y1="128" x2="752" y2="128" gradientUnits="userSpaceOnUse">
			<stop offset="0" stop-color="#e88977"/>
			<stop offset="1" stop-color="#bf4561"/>
		</linearGradient>
	</defs>
	<style>
		.s0 { fill: #000000 } 
		.s1 { fill: url(#g1) } 
		.s2 { fill: #ffffff } 
	</style>
	<path id="Shape 2 copy 2" class="s0" d="m39.7 235.9c-4.5 0-30.7-52.7-30.7-110.9 0-58.2 26.2-104.9 30.7-104.9 4.5 0 8.2 49.7 8.2 107.9 0 58.2-3.7 107.9-8.2 107.9zm684.5 0c-4.5 0 16.1-51.7 16.1-109.9 0-58.2-20.6-105.9-16.1-105.9 4.5 0 34.8 47.7 34.8 105.9 0 58.2-30.3 109.9-34.8 109.9zm-684.5-215.8h684.5l0.1 215.8h-684.6z"/>
	<path id="Shape 2" class="s1" d="m39.8 233.3c-4.5 0-23.8-47.1-23.8-105.3 0-58.2 19.3-105.3 23.8-105.3 4.5 0 8.1 47.1 8.1 105.3 0 58.2-3.6 105.3-8.1 105.3zm684.1 0c-4.5 0-3.9-48.1-3.9-106.3 0-58.2-0.6-104.3 3.9-104.3 4.5 0 28.1 48.1 28.1 106.3 0 58.2-23.6 104.3-28.1 104.3zm-684.2-210.6h684.4v210.6h-684.4z"/>
	<path id="Télécharger" class="s2" aria-label="Télécharger"  d="m81.8 74.3h75.8l-2.3 14.5h-30.8l-14.8 77.2h-16.9l15.1-77.2h-28.7zm103.7 77.2l-2.3 14.4h-45.1l11.3-64.4h45.2l-7.1 39.1h-30.1l-1.9 10.9zm-25.3-27.5h13.4l1.4-8.1h-13.5zm62.5 42h-28.5l17.9-91.7h16.7l-14.6 75.1h11.5zm55.6-14.6l-2.4 14.5h-45l11.2-64.5h45.2l-7 39.2h-30.2l-1.8 10.8zm-25.3-27.5h13.4l1.4-8.1h-13.5zm46.5-22.4h43.8l-2.5 14.4h-29.6l-7 35.7h30l-2.3 14.4h-45.1zm74.3-27.3l-5.9 34.7h43.1l-9.7 57h-16.8l7.1-40.3h-26.6l-6.8 40.3h-16.8l16-91.7zm72.5 47l0.5-3.6-28.4-0.2 3.8-16.6h39l4.3 6.6-9.3 58.1h-40.1l-4.8-8.4 5.6-30.8 5.9-4.8zm-16.1 26.6l11.8 0.1 1.6-9.7h-11.7zm46.1-46.3h46.5l-4.2 23.7-15 8.2 2.3-13.5-16.4 0.3-7.7 45.7h-16.8zm76.4 74.4l4.2-24.7h-36.3l10.8-50h51.6l-15.6 91.4h-54.8l3.3-16.7zm-11-40.7h17.9l3.1-18.1h-17.1zm89.6 16.2l-2.3 14.5h-45.1l11.3-64.5h45.2l-7.1 39.2h-30.1l-1.9 10.8zm-25.2-27.5h13.3l1.5-8.1h-13.5zm45.8-22.4h46.5l-4.2 23.7-15 8.3 2.3-13.5-16.4 0.2-7.7 45.8h-16.8z"/>
	<path id="Shape 2 copy" class="s2" d="m72.5 45c-5.2 0-9.5-4.2-9.5-9.5 0-5.2 4.3-9.5 9.5-9.5 5.3 0 9.5 4.3 9.5 9.5 0 5.3-4.2 9.5-9.5 9.5zm71 0c-5.3 0-9.5-4.2-9.5-9.5 0-5.2 4.2-9.5 9.5-9.5 5.2 0 9.5 4.3 9.5 9.5 0 5.3-4.3 9.5-9.5 9.5zm-71.1-19h71.3v19h-71.3z"/>
	<path id="Shape 3" class="s2" d="m171 46c-5.5 0-10-4.5-10-10 0-5.5 4.5-10 10-10 5.5 0 10 4.5 10 10 0 5.5-4.5 10-10 10z"/>
</svg>