<svg version="1.2" xmlns="http://www.w3.org/2000/svg" viewBox="0 0 1280 720" width="1280" height="720">
	<title>New Project</title>
	<defs>
		<linearGradient id="g1" x1="255" y1="360" x2="1022" y2="360" gradientUnits="userSpaceOnUse">
			<stop offset="0" stop-color="#e88977"/>
			<stop offset="1" stop-color="#bf4561"/>
		</linearGradient>
	</defs>
	<style>
		.s0 { fill: #000000 } 
		.s1 { fill: url(#g1) } 
		.s2 { fill: #ffffff } 
	</style>
	<path id="Shape 2 copy 2" class="s0" d="m332.7 444.5c-44.8 0-82.9-39.7-82.9-84.5 0-44.8 40.2-85.4 85-85.4 44.8 0 83.2 40.6 83.2 85.4 0 44.8-40.5 84.5-85.3 84.5zm611.5 0c-44.8 0-84.2-39.7-84.2-84.5 0-44.8 37.3-84.4 82.1-84.4 44.8 0 84 39.6 84 84.4 0 44.8-37.1 84.5-81.9 84.5zm-608.4-169.8l607.5 1.3 0.7 168.2-608 0.3z"/>
	<path id="Shape 2" class="s1" d="m255 360c0-44.8 36.2-81 81-81h607c43.9 1.1 79 36.9 79 81 0 44.1-35.1 79.9-79 81h-607q0 0 0 0c-44.8 0-81-36.2-81-81z"/>
	<path id="Shape 2 copy" class="s2" d="m356 286.9c0-3.8 3-6.8 6.7-6.8h50.7c3.7 0.1 6.6 3.1 6.6 6.8 0 3.6-2.9 6.6-6.6 6.7h-50.7c-3.7 0-6.7-3-6.7-6.7z"/>
	<path id="Shape 3" class="s2" d="m432 294c-3.9 0-7-3.1-7-7 0-3.9 3.1-7 7-7 3.9 0 7 3.1 7 7 0 3.9-3.1 7-7 7z"/>
</svg>