<svg version="1.2" xmlns="http://www.w3.org/2000/svg" viewBox="0 0 7063 629" width="7063" height="629">
	<title>New Project</title>
	<defs>
		<linearGradient id="g1" x1="8" y1="305" x2="7056" y2="305" gradientUnits="userSpaceOnUse">
			<stop offset="0" stop-color="#e88977"/>
			<stop offset="1" stop-color="#bf4561"/>
		</linearGradient>
	</defs>
	<style>
		.s0 { fill: #000000 } 
		.s1 { fill: url(#g1) } 
		.s2 { fill: #ffffff } 
	</style>
	<path id="Shape 2 copy 2" class="s0" d="m109 412.9c-44.8 0-104-49.7-104-107.9 0-58.2 59.2-107.9 104-107.9 44.8 0 82 49.7 82 107.9 0 58.2-37.2 107.9-82 107.9zm6845 0c-44.8 0-82-49.7-82-107.9 0-58.2 37.2-107.9 82-107.9 44.8 0 105 49.7 105 107.9 0 58.2-60.2 107.9-105 107.9zm-6845-215.8h6845l1 215.8h-6846z"/>
	<path id="Shape 2" class="s1" d="m110 410.3c-44.8 0-102-47.1-102-105.3 0-58.2 57.2-105.3 102-105.3 44.8 0 81 47.1 81 105.3 0 58.2-36.2 105.3-81 105.3zm6841 0c-44.8 0-81-47.1-81-105.3 0-58.2 36.2-105.3 81-105.3 44.8 0 105 46.1 105 104.3 0 58.2-60.2 106.3-105 106.3zm-6842-210.6h6844v210.6h-6844z"/>
	<path id="Shape 2 copy" class="s2" d="m168.5 222c-5.2 0-9.5-4.2-9.5-9.5 0-5.2 4.3-9.5 9.5-9.5 5.3 0 9.5 4.3 9.5 9.5 0 5.3-4.2 9.5-9.5 9.5zm71 0c-5.3 0-9.5-4.2-9.5-9.5 0-5.2 4.2-9.5 9.5-9.5 5.2 0 9.5 4.3 9.5 9.5 0 5.3-4.3 9.5-9.5 9.5zm-71.1-19h71.3v19h-71.3z"/>
	<path id="Shape 3" class="s2" d="m267 223c-5.5 0-10-4.5-10-10 0-5.5 4.5-10 10-10 5.5 0 10 4.5 10 10 0 5.5-4.5 10-10 10z"/>
</svg>